<?xml version="1.0" standalone="no"?><!DOCTYPE svg PUBLIC "-//W3C//DTD SVG 1.1//EN" "http://www.w3.org/Graphics/SVG/1.1/DTD/svg11.dtd"><svg t="1573356335287" class="icon" viewBox="0 0 1024 1024" version="1.1" xmlns="http://www.w3.org/2000/svg" p-id="1766" xmlns:xlink="http://www.w3.org/1999/xlink" width="200" height="200"><defs><style type="text/css"></style></defs><path d="M186.181818 484.072727h800.581818v251.345455a9.309091 9.309091 0 0 1-9.309091 9.309091H195.490909a9.309091 9.309091 0 0 1-9.309091-9.309091z m139.636364 111.709091a9.309091 9.309091 0 0 0-9.309091 9.309091v93.090909a9.309091 9.309091 0 0 0 9.309091 9.309091h130.327273a9.309091 9.309091 0 0 0 9.30909-9.309091V605.090909a9.309091 9.309091 0 0 0-9.30909-9.309091z" fill="#3E566A" p-id="1767"></path><path d="M316.509091 670.254545h148.945454v27.927273a9.309091 9.309091 0 0 1-9.30909 9.309091H325.818182a9.309091 9.309091 0 0 1-9.309091-9.309091z" fill="#6F899E" p-id="1768"></path><path d="M316.509091 335.127273h186.181818v37.236363H316.509091v37.236364h186.181818v37.236364H279.272727V297.890909h37.236364z" fill="#3E566A" p-id="1769"></path><path d="M279.272727 297.890909v148.945455h186.181818l37.236364-37.236364V297.890909h37.236364v186.181818H18.618182V297.890909z" fill="#2195F2" p-id="1770"></path><path d="M288.581818 260.654545h214.109091v37.236364H279.272727l9.309091-37.236364z" fill="#0F56BB" p-id="1771"></path><path d="M502.690909 297.890909v-37.236364H288.581818l-9.309091 37.236364H18.618182l16.849454-67.397818a9.309091 9.309091 0 0 1 9.309091-7.074909H539.927273v74.472727z" fill="#60B7FD" p-id="1772"></path><path d="M44.497455 558.545455H530.618182a9.309091 9.309091 0 0 0 9.309091-9.309091v-65.163637H18.618182l16.849454 67.397818a9.309091 9.309091 0 0 0 9.029819 7.07491z" fill="#0F56BB" p-id="1773"></path><path d="M539.927273 223.418182h102.4a9.309091 9.309091 0 0 1 9.309091 9.309091v251.345454H539.927273z" fill="#96ADBD" p-id="1774"></path><path d="M558.545455 242.036364m9.30909 0l55.854546 0q9.309091 0 9.309091 9.309091l0 46.545454q0 9.309091-9.309091 9.309091l-55.854546 0q-9.309091 0-9.30909-9.309091l0-46.545454q0-9.309091 9.30909-9.309091Z" fill="#3E566A" p-id="1775"></path><path d="M558.545455 353.745455h18.618181v18.618181h-18.618181zM558.545455 325.818182h18.618181v18.618182h-18.618181zM586.472727 325.818182h18.618182v18.618182h-18.618182zM558.545455 381.672727h18.618181v18.618182h-18.618181zM558.545455 409.6h18.618181v18.618182h-18.618181z" fill="#6F899E" p-id="1776"></path><path d="M558.545455 446.836364h74.472727v18.618181h-74.472727z" fill="#B5D0E4" p-id="1777"></path><path d="M586.472727 353.745455h18.618182v18.618181h-18.618182zM614.4 353.745455h18.618182v18.618181h-18.618182zM614.4 325.818182h18.618182v18.618182h-18.618182zM586.472727 381.672727h18.618182v18.618182h-18.618182zM614.4 381.672727h18.618182v18.618182h-18.618182zM586.472727 409.6h18.618182v18.618182h-18.618182z" fill="#6F899E" p-id="1778"></path><path d="M614.4 409.6h18.618182v18.618182h-18.618182z" fill="#D74317" p-id="1779"></path><path d="M651.636364 372.363636h344.436363a9.309091 9.309091 0 0 1 9.309091 9.309091v37.236364a9.309091 9.309091 0 0 1-9.309091 9.309091H651.636364z" fill="#0F56BB" p-id="1780"></path><path d="M741.655273 335.127273H977.454545a9.309091 9.309091 0 0 1 9.309091 9.309091v121.018181H688.872727v-16.756363a9.309091 9.309091 0 0 1 0.744728-3.537455l43.380363-104.261818a9.309091 9.309091 0 0 1 8.657455-5.771636z" fill="#2195F2" p-id="1781"></path><path d="M772.654545 335.127273h-18.618181l-55.854546-74.472728h130.327273z m-74.472727-148.945455h130.327273v74.472727H698.181818z" fill="#96ADBD" p-id="1782"></path><path d="M688.872727 167.563636m4.654546 0l139.636363 0q4.654545 0 4.654546 4.654546l0 9.309091q0 4.654545-4.654546 4.654545l-139.636363 0q-4.654545 0-4.654546-4.654545l0-9.309091q0-4.654545 4.654546-4.654546Z" fill="#B5D0E4" p-id="1783"></path><path d="M688.872727 465.454545h297.890909v18.618182H688.872727z" fill="#0F56BB" p-id="1784"></path></svg>